<?xml version="1.0" encoding="UTF-8"?>
<svg width="45px" height="45px" viewBox="0 0 45 45" version="1.1" xmlns="http://www.w3.org/2000/svg" xmlns:xlink="http://www.w3.org/1999/xlink">
    <title>Group</title>
    <g id="Page-1" stroke="none" stroke-width="1" fill="none" fill-rule="evenodd">
        <g id="Group-2" transform="translate(5.000000, 2.000000)" stroke="#5552D4">
            <g id="Group" transform="translate(0.000000, 3.000000)">
                <path d="M31.6666667,-2.5 C33.3206011,-2.5 34.8482459,-1.74378566 35.9425289,-0.433507793 C36.8882541,0.698889084 37.5,2.25650205 37.5,3.99128253 L37.5,3.99128253 L37.5,31.0087175 C37.5,32.743498 36.8882541,34.3011109 35.9425289,35.4335078 C34.8482459,36.7437857 33.3206011,37.5 31.6666667,37.5 L31.6666667,37.5 L3.33333333,37.5 C1.67939888,37.5 0.151754109,36.7437857 -0.942528938,35.4335078 C-1.88825408,34.301111 -2.5,32.743498 -2.5,31.0087175 L-2.5,31.0087175 L-2.5,3.99128253 C-2.5,2.25650203 -1.88825407,0.698889056 -0.942528921,-0.433507824 C0.151754126,-1.74378567 1.67939889,-2.5 3.33333333,-2.5 L3.33333333,-2.5 Z" id="Stroke-2" stroke-width="5" transform="translate(17.500000, 17.500000) rotate(180.000000) translate(-17.500000, -17.500000) "></path>
                <g transform="translate(7.000000, 5.000000)" id="Path" stroke-width="4">
                    <polygon points="11.5 9.55324675 11.5 0.21991342 0 14.8865801 8.94444444 14.8865801 8.94444444 24.2199134 20.4444444 9.55324675"></polygon>
                </g>
            </g>
        </g>
    </g>
</svg>